<svg id="Capa_1" enable-background="new 0 0 512.009 512.009" height="512" viewBox="0 0 512.009 512.009" width="512" xmlns="http://www.w3.org/2000/svg"><g><path d="m200.495 238.701-10.325 10.324c-2.93 2.929-2.93 7.678-.001 10.606 1.465 1.465 3.384 2.197 5.304 2.197 1.919 0 3.839-.732 5.303-2.196l10.325-10.324c2.93-2.929 2.93-7.678.001-10.606s-7.678-2.93-10.607-.001z"/><path d="m227.147 265.353-10.325 10.324c-2.93 2.929-2.93 7.678-.001 10.606 1.465 1.465 3.384 2.197 5.304 2.197 1.919 0 3.839-.732 5.303-2.196l10.325-10.324c2.93-2.929 2.93-7.678.001-10.606s-7.679-2.93-10.607-.001z"/><path d="m484.932 64.892h-8.751c-1.268-9.575-4.979-18.879-11.125-26.909l6.173-6.172c2.93-2.929 2.93-7.678.001-10.606s-7.678-2.93-10.606-.001l-6.168 6.167c-7.862-6.035-17.088-9.856-26.915-11.148v-8.723c0-4.143-3.357-7.5-7.5-7.5s-7.5 3.357-7.5 7.5v8.723c-9.827 1.292-19.053 5.113-26.915 11.148l-6.168-6.167c-2.928-2.928-7.677-2.929-10.606.001-2.929 2.929-2.929 7.678.001 10.606l5.811 5.81-30.734 30.732-5.811-5.811c-2.93-2.928-7.678-2.928-10.607 0-2.929 2.93-2.929 7.678 0 10.607l5.811 5.811-30.733 30.733-5.812-5.811c-2.928-2.928-7.677-2.929-10.606.001-2.929 2.929-2.929 7.678.001 10.606l5.811 5.81-30.732 30.732-5.811-5.811c-2.93-2.928-7.678-2.928-10.607 0-2.929 2.93-2.929 7.678 0 10.607l5.811 5.811-25.479 25.478c-9.708-3.24-20.422-2.641-29.755 1.797l-29.448-29.448c-9.277-9.275-24.382-9.275-33.657 0l-5.222 5.222c-8.114-24.465-21.788-46.68-40.246-65.139-2.93-2.93-7.679-2.929-10.606-.001-2.93 2.929-2.93 7.678-.001 10.606 18.612 18.613 31.862 41.426 38.82 66.568l-64.381 64.382c-9.277 9.275-9.276 24.381 0 33.657l27.83 27.829-3.101 3.101c-14.082 14.083-15.368 36.188-3.864 51.739l-46.56 79.532c-9.054 15.466-6.527 35.117 6.145 47.787.568.568 15.053 15.055 15.707 15.709 15.384 15.384 40.317 15.422 55.747 0l151.542-151.542c2.929-2.93 2.929-7.678 0-10.607-2.93-2.928-7.678-2.928-10.607 0l-14.022 14.022-30.432-30.433c-10.892-10.89-28.609-10.887-39.499.001l-1.556 1.555-12.332-66.817 49.343-49.344.001-.001s.008-.007.011-.01c9.505-9.49 25.261-9.735 35.004.009 55.453 55.453 54.795 54.799 54.795 54.799 9.489 9.55 9.665 25.242-.05 34.957l-16.514 16.513c-2.93 2.929-2.93 7.678-.001 10.606s7.678 2.93 10.606.001l16.515-16.513c10.857-10.857 14.099-26.482 9.746-40.198l25.668-25.668 5.811 5.811c2.931 2.929 7.678 2.928 10.607 0 2.929-2.93 2.929-7.678 0-10.607l-5.811-5.811 30.732-30.732 5.812 5.812c2.928 2.928 7.676 2.929 10.606-.001 2.929-2.929 2.929-7.678-.001-10.606l-5.811-5.811 30.733-30.733 5.811 5.811c2.931 2.929 7.678 2.928 10.607 0 2.929-2.93 2.929-7.678 0-10.607l-5.811-5.811 30.732-30.732 5.812 5.812c2.928 2.928 7.676 2.929 10.606-.001 2.929-2.929 2.929-7.678-.001-10.606l-6.173-6.173c6.146-8.03 9.857-17.334 11.125-26.909h8.751c4.143 0 7.5-3.357 7.5-7.5s-3.355-7.501-7.497-7.501zm-342.02 105.181c3.413-3.413 9.031-3.412 12.442.001l27.831 27.83-40.822 40.822c-10.372-56.197-9.815-53.385-10.701-57.403zm-81.636 94.079c-3.414-3.412-3.413-9.031 0-12.442l57.599-57.6 10.611 57.492-40.38 40.38zm-23.355 180.387 44.347-75.753c4.285 4.285 37.182 37.182 42.573 42.573l-72.949 72.949-10.165-10.166c-7.85-7.849-9.415-20.022-3.806-29.603zm54.046 45.311c-7.761 7.761-19.495 9.19-28.711 4.307l72.192-72.191 12.202 12.202zm96.481-157.346 30.432 30.432-60.623 60.624c-10.537-10.537-37.442-37.442-39.575-39.575l51.481-51.48c5.04-5.042 13.245-5.043 18.285-.001zm-43.324 3.825-37.049 37.049-22.068-22.068c-9.676-9.674-9.678-25.337 0-35.013l46.785-46.785zm150.254-84.902-8.325-8.325 56.03-56.031c2.93-2.929 2.93-7.678.001-10.606-2.929-2.93-7.678-2.929-10.606-.001l-56.032 56.032-16.508-16.508 151.848-151.849c4.566-4.568 11.939-4.569 16.508 0 4.55 4.55 4.55 11.959-.001 16.508l-71.067 71.067c-2.929 2.93-2.929 7.678 0 10.607 2.93 2.928 7.678 2.928 10.607 0l71.067-71.068c10.41-10.41 10.415-27.308 0-37.721-10.43-10.432-27.29-10.431-37.722-.001l-151.847 151.849-8.697-8.697c-.019-.018-.039-.035-.057-.053-.56-.559-1.449-1.382-1.917-1.792l151.913-151.913c16.285-16.287 42.647-16.288 58.934 0 16.287 16.285 16.288 42.647 0 58.934l-151.941 151.941c-.459-.541-1.484-1.669-2.188-2.373z"/></g></svg>