<?xml version="1.0" encoding="iso-8859-1"?>
<!-- Generator: Adobe Illustrator 19.0.0, SVG Export Plug-In . SVG Version: 6.00 Build 0)  -->
<svg version="1.1" id="Capa_1" xmlns="http://www.w3.org/2000/svg" xmlns:xlink="http://www.w3.org/1999/xlink" x="0px" y="0px"
	 viewBox="0 0 511.946 511.946" style="enable-background:new 0 0 511.946 511.946;" xml:space="preserve">
<g>
	<g>
		<g>
			<path d="M493.606,215.486c0.193-0.513,0.338-1.049,0.431-1.606c5.818-22.242,6.118-46.076,0.043-69.385
				c-0.048-0.363-0.112-0.727-0.209-1.091c-0.099-0.369-0.228-0.721-0.371-1.065c-1.088-3.913-2.348-7.811-3.802-11.68
				c-6.99-18.603-17.616-34.849-30.785-48.206c-0.212-0.27-0.435-0.533-0.684-0.782c-0.251-0.251-0.516-0.476-0.789-0.689
				c-16.762-16.494-37.472-28.396-59.994-34.635c-0.585-0.233-1.194-0.395-1.815-0.495c-20.711-5.434-42.89-6.09-64.898-1.154
				l-2.23-7.682c-2.071-7.094-7.061-12.972-13.725-16.167c-6.411-3.092-13.835-3.31-20.417-0.6
				c-4.997,2.077-9.876,4.399-14.634,6.932l-8.349-21.707c-1.691-4.4-6.629-6.596-11.029-4.904c-4.4,1.691-6.596,6.629-4.904,11.029
				l9.421,24.493C254.4,43.117,244.709,51.289,236.004,60.5c-24.922,26.264-40.353,59.008-45.434,93.353l-32.901,19.173
				L143.57,133.55c-1.026-2.87-3.505-4.975-6.503-5.522c-2.998-0.547-6.061,0.548-8.033,2.871s-2.556,5.522-1.53,8.392
				l15.169,42.474l-57.71,33.63c-7.175,4.235-12.985,10.439-16.742,17.875L22.713,343.212
				C7.106,380.88,11.343,423.854,34.007,457.748c22.663,33.894,60.758,54.229,101.531,54.198
				c28.983,0.052,56.91-10.243,78.861-28.832l7.439,7.436c4.555,4.583,10.755,7.152,17.217,7.133
				c6.464,0.02,12.667-2.549,17.225-7.134c6.628-6.67,8.85-16.547,5.717-25.412l-7.637-21.383l93.022-93.023
				c4.392,0.345,8.818,0.528,13.273,0.535c18.55-0.01,36.979-2.997,54.583-8.845c6.791-2.273,12.288-7.339,15.108-13.921
				c2.942-6.808,2.833-14.549-0.3-21.271l-3.358-7.199C460.505,281.628,483.961,250.63,493.606,215.486z M38.479,349.737
				l45.158-109.2c2.273-4.32,5.708-7.919,9.917-10.392l54.959-32.025l45.395,127.109c-7.331,3.58-13.803,9.077-18.59,16.253
				c-12.535,18.792-10.046,43.823,5.944,59.779c8.86,8.875,20.893,13.852,33.434,13.829c3.722,0,7.355-0.441,10.853-1.264
				l9.106,25.496l-24.851,24.85c-4.124,4.124-8.529,7.824-13.144,11.13c-43.968-38.11-101.941-56.02-159.753-49.332
				C28.12,401.934,28.107,374.801,38.479,349.737z M235.174,390.037l-18.702-52.364c3.31,0.194,6.619,0.915,9.794,2.229
				c11.294,4.678,18.657,15.698,18.657,27.922C244.923,376.425,241.267,384.418,235.174,390.037z M219.761,397.622
				c-9.519,1.618-19.412-1.406-26.432-8.426c-11.783-11.811-11.783-30.931,0-42.742c1.94-1.94,4.108-3.557,6.418-4.873
				L219.761,397.622z M77.192,477.244c-13.777-9.202-24.75-21.209-32.602-34.82c49.191-3.933,98.05,11.144,136.472,42.126
				C148.336,500.284,108.785,498.346,77.192,477.244z M245.921,470.871c0.941,2.655,0.276,5.614-1.708,7.613
				c-2.888,2.746-7.421,2.746-10.308,0l-7.138-7.136l14.24-14.24L245.921,470.871z M248.008,425.971l-6.79-19.011
				c10.041-6.796,17.41-17.384,19.913-29.981c4.402-22.156-7.463-44.336-28.337-52.97c-7.291-3.016-14.971-4.079-22.414-3.394
				l-46.869-131.233l25.261-14.72c-0.624,24.332,3.896,48.968,13.873,72.241c22.488,52.457,69.086,89.633,123.595,100.838
				L248.008,425.971z M414.679,321.737c-0.884,2.116-2.636,3.749-4.808,4.483c-20.835,6.935-42.3,9.214-63.146,7.295
				c-0.058-0.017-0.112-0.042-0.17-0.058c-0.94-0.252-1.899-0.32-2.841-0.25c-45.577-5.094-87.883-30.297-113.723-70.93
				c-19.383-30.48-26.969-65.67-23.342-99.686c0.832-1.697,1.086-3.645,0.688-5.53c4.437-31.028,18.257-60.804,41.035-84.804h0
				c6.945-7.352,14.59-13.967,22.797-19.783l14.728,38.291c1.269,3.296,4.435,5.471,7.967,5.475v0
				c2.81-0.005,5.438-1.391,7.029-3.708s1.941-5.267,0.937-7.892l-15.926-41.405c4.859-2.672,9.867-5.09,15.009-7.228
				c2.096-0.862,4.463-0.777,6.492,0.233c2.292,1.094,4.008,3.115,4.717,5.554l4.306,14.83c0.1,0.521,0.247,1.029,0.442,1.523
				l35.794,123.277c0.12,0.421,0.273,0.832,0.458,1.229l61.458,131.783C415.653,316.745,415.689,319.401,414.679,321.737z
				 M382.721,205.754l-13.859-29.716l-9.143-31.493c12.38-0.41,24.323,5.89,30.853,16.933c8.023,13.567,5.838,30.846-5.31,41.989
				C384.453,204.273,383.602,205.032,382.721,205.754z M390.088,221.551c19.226-13.215,27.499-38.141,19.036-60.648
				c-8.46-22.5-31.097-35.799-54.26-33.083l-19.366-66.71c16.284-3.515,32.659-3.544,48.259-0.518l-4.404,16.424
				c-0.681,2.564-0.134,5.299,1.481,7.403c1.615,2.104,4.116,3.339,6.769,3.343c3.859-0.007,7.234-2.601,8.233-6.329l4.4-16.412
				c14.522,5.023,28.017,12.784,39.686,22.889l-12.027,12.027c-2.44,2.44-3.169,6.11-1.849,9.298
				c1.32,3.188,4.431,5.267,7.882,5.268c2.264,0.003,4.435-0.897,6.033-2.5l12.037-12.036c9.165,10.555,16.627,22.873,21.81,36.669
				c0.377,1.004,0.737,2.01,1.086,3.018l-16.433,4.403c-4.134,1.109-6.808,5.109-6.251,9.353s4.171,7.42,8.451,7.426
				c0.749,0,1.494-0.1,2.217-0.296l16.453-4.409c2.997,15.404,2.884,30.94-0.002,45.825l-16.451-4.408
				c-4.552-1.22-9.23,1.482-10.45,6.033c-1.22,4.552,1.482,9.23,6.033,10.45l16.445,4.406
				c-5.006,14.488-12.747,27.996-22.892,39.703l-12.053-12.055c-3.332-3.332-8.735-3.332-12.067,0
				c-3.332,3.332-3.332,8.735,0,12.067l12.055,12.057c-6.219,5.393-13.062,10.211-20.486,14.329L390.088,221.551z"/>
			<path d="M84.804,413.137c13.011-0.004,24.769-7.756,29.9-19.712l34.458-80.391c6.994-16.492-0.665-35.534-17.131-42.589
				c-16.465-7.055-35.536,0.533-42.653,16.972l-34.45,80.388c-4.305,10.045-3.277,21.582,2.737,30.707
				C63.679,407.637,73.875,413.132,84.804,413.137z M70.613,374.529l34.45-80.388c1.987-4.739,6.23-8.156,11.283-9.088
				c0.994-0.194,2.004-0.291,3.017-0.292l0,0c4.073,0,7.976,1.635,10.833,4.538c4.486,4.458,5.788,11.206,3.283,17.013L99.021,386.7
				c-3.361,7.845-12.445,11.48-20.29,8.119C70.887,391.458,67.252,382.374,70.613,374.529z"/>
		</g>
	</g>
</g>
<g>
</g>
<g>
</g>
<g>
</g>
<g>
</g>
<g>
</g>
<g>
</g>
<g>
</g>
<g>
</g>
<g>
</g>
<g>
</g>
<g>
</g>
<g>
</g>
<g>
</g>
<g>
</g>
<g>
</g>
</svg>
