<svg xmlns="http://www.w3.org/2000/svg" viewBox="0 0 694.64 80.8"><g id="Warstwa_2"><g id="Capa_1"><path d="M188.53,26.79a13.5,13.5,0,0,0-13,10.24h-29.8L125.3,1.68A3.38,3.38,0,0,0,122.38,0H79.62A3.39,3.39,0,0,0,76.7,1.68L56.29,37H26.49A13.44,13.44,0,0,0,0,40.19,13.57,13.57,0,0,0,13.47,53.76a13.28,13.28,0,0,0,13-10h29.8L76.7,79.12a3.38,3.38,0,0,0,2.92,1.68h42.76a3.39,3.39,0,0,0,2.92-1.68l20.41-35.35h29.8a13.25,13.25,0,0,0,13,10,13.47,13.47,0,0,0,0-26.94ZM13.47,46.85a6.73,6.73,0,1,1,6.73-6.73A6.74,6.74,0,0,1,13.47,46.85Zm107,27.22H81.56L62.12,40.4,81.56,6.73h38.88L139.87,40.4Zm68.09-27.22a6.73,6.73,0,1,1,6.74-6.73A6.74,6.74,0,0,1,188.53,46.85Z"/><path d="M236.59,60.29h-9.53v-38h24.8c4.39,0,6.84.51,9.07,1.88a10,10,0,0,1,4.62,8.55,9.84,9.84,0,0,1-6.62,9.63c3.76,1.37,4.9,3.48,5,9.41.17,4.73.45,6.1,1.6,8.55H255.06c-.69-2.11-.8-3-.75-6.61.06-5.53-1.42-7.18-6.38-7.24H236.59Zm12.65-21.55c2.11,0,3-.11,3.82-.57a4.4,4.4,0,0,0,0-7.64c-.85-.45-1.71-.57-3.82-.57H236.59v8.78Z"/><path d="M273.69,60.29v-38h34.78V30H283.21v6.45h22.35V44.1H283.21v8.5h25.26v7.69Z"/><path d="M344.66,60.29l-9.81-13c-5-6.67-8.26-11.4-10.54-15,.23,3.48.23,4.34.28,16.59V60.29h-9.23v-38h11.4L336,34.41c3.6,4.73,8.9,12.14,11.23,15.79-.17-2.16-.28-7.18-.28-16.3V22.27h9.23v38Z"/><path d="M383.87,60.29h-9.52V30H361.18V22.27H397V30H383.87Z"/><path d="M402,60.29v-38h34.77V30H411.52v6.45h22.34V44.1H411.52v8.5h25.25v7.69Z"/><path d="M443.66,60.29v-38h9.52V52.6H473v7.69Z"/><path d="M478.43,60.29v-38h34.78V30H488v6.45H510.3V44.1H488v8.5h25.26v7.69Z"/><path d="M560.57,60.29H547.92L534.69,43.82l-5.07,4.39V60.29H520.1v-38h9.52V37.2l16.76-14.93h13.39l-17.9,15.45Z"/><path d="M585.88,60.29h-9.52V30H563.19V22.27H599V30H585.88Z"/><path d="M613.52,60.29H604v-38h24.8c4.39,0,6.84.51,9.06,1.88a10,10,0,0,1,4.62,8.55,9.84,9.84,0,0,1-6.61,9.63c3.76,1.37,4.9,3.48,5,9.41.17,4.73.46,6.1,1.6,8.55H632c-.68-2.11-.8-3-.74-6.61.06-5.53-1.43-7.18-6.39-7.24H613.52Zm12.66-21.55c2.1,0,3-.11,3.81-.57a4.39,4.39,0,0,0,0-7.64c-.85-.45-1.71-.57-3.81-.57H613.52v8.78Z"/><path d="M694.64,41.54a19.6,19.6,0,0,1-6.73,14.36c-4.16,3.65-10.15,5.7-16.53,5.7-13.29,0-23.26-8.72-23.26-20.35S658.09,21,671.32,21C684.83,21,694.64,29.56,694.64,41.54Zm-36.09-.29a12.83,12.83,0,1,0,25.65.17,12.83,12.83,0,1,0-25.65-.17Z"/></g></g></svg>